<svg class="animated" id="freepik_stories-custom-car" xmlns="http://www.w3.org/2000/svg" viewBox="0 0 750 500" version="1.1" xmlns:xlink="http://www.w3.org/1999/xlink" xmlns:svgjs="http://svgjs.com/svgjs"><style>svg#freepik_stories-custom-car:not(.animated) .animable {opacity: 0;}svg#freepik_stories-custom-car.animated #freepik--background-simple--inject-223 {animation: 1s 1 forwards cubic-bezier(.36,-0.01,.5,1.38) fadeIn,1.5s Infinite  linear shake;animation-delay: 0s,1s;}svg#freepik_stories-custom-car.animated #freepik--Floor--inject-223 {animation: 1s 1 forwards cubic-bezier(.36,-0.01,.5,1.38) lightSpeedRight;animation-delay: 0s;}svg#freepik_stories-custom-car.animated #freepik--Stars--inject-223 {animation: 1s 1 forwards cubic-bezier(.36,-0.01,.5,1.38) lightSpeedRight,1.5s Infinite  linear floating;animation-delay: 0s,1s;}svg#freepik_stories-custom-car.animated #freepik--Flag--inject-223 {animation: 1s 1 forwards cubic-bezier(.36,-0.01,.5,1.38) lightSpeedRight;animation-delay: 0s;}svg#freepik_stories-custom-car.animated #freepik--Car--inject-223 {animation: 1s 1 forwards cubic-bezier(.36,-0.01,.5,1.38) zoomIn,1.5s Infinite  linear shake;animation-delay: 0s,1s;}            @keyframes fadeIn {                0% {                    opacity: 0;                }                100% {                    opacity: 1;                }            }                    @keyframes shake {                10%, 90% {                    transform: translate3d(-1px, 0, 0);                  }                  20%, 80% {                    transform: translate3d(2px, 0, 0);                  }                  30%, 50%, 70% {                    transform: translate3d(-4px, 0, 0);                  }                  40%, 60% {                    transform: translate3d(4px, 0, 0);                  }            }                    @keyframes lightSpeedRight {              from {                transform: translate3d(50%, 0, 0) skewX(-20deg);                opacity: 0;              }              60% {                transform: skewX(10deg);                opacity: 1;              }              80% {                transform: skewX(-2deg);              }              to {                opacity: 1;                transform: translate3d(0, 0, 0);              }            }                    @keyframes floating {                0% {                    opacity: 1;                    transform: translateY(0px);                }                50% {                    transform: translateY(-10px);                }                100% {                    opacity: 1;                    transform: translateY(0px);                }            }                    @keyframes zoomIn {                0% {                    opacity: 0;                    transform: scale(0.5);                }                100% {                    opacity: 1;                    transform: scale(1);                }            }        </style><g id="freepik--background-simple--inject-223" class="animable" style="transform-origin: 369.719px 244.375px;"><g id="el3yy5zo673yd" class="animable" style="transform-origin: 369.719px 244.375px;"><path d="M725.71,255.57c4.21-90.11-41.86-173.33-114.16-210.04-25.26-12.83-53.94-23.63-80.19-24.65-67.52-2.62-151.92,31.49-206.4,43.74-54.48,12.25-136.58-37.62-199.5-19.25C62.54,63.75-7.22,170.02,19.21,285.08c26.43,115.06,93.88,168.84,162.17,175.84,68.29,7,147.36-63.67,203.02-53.71,55.66,9.97,72.54,63.33,181.5,60.71,108.96-2.62,153.46-108.48,159.6-208.21,.09-1.38,.16-2.76,.22-4.14Z" style="fill: rgb(197, 63, 63); transform-origin: 369.719px 244.375px;" id="elp30p3n22nap" class="animable"></path><g id="elpwqgf7mkp9"><path d="M725.71,255.57c4.21-90.11-41.86-173.33-114.16-210.04-25.26-12.83-53.94-23.63-80.19-24.65-67.52-2.62-151.92,31.49-206.4,43.74-54.48,12.25-136.58-37.62-199.5-19.25C62.54,63.75-7.22,170.02,19.21,285.08c26.43,115.06,93.88,168.84,162.17,175.84,68.29,7,147.36-63.67,203.02-53.71,55.66,9.97,72.54,63.33,181.5,60.71,108.96-2.62,153.46-108.48,159.6-208.21,.09-1.38,.16-2.76,.22-4.14Z" style="fill: rgb(255, 255, 255); opacity: 0.8; transform-origin: 369.719px 244.375px;" class="animable"></path></g></g></g><g id="freepik--Floor--inject-223" class="animable" style="transform-origin: 374.3px 382.64px;"><ellipse cx="374.3" cy="382.64" rx="363.11" ry="95.05" style="fill: rgb(38, 50, 56); transform-origin: 374.3px 382.64px;" id="elw985zgip4l" class="animable"></ellipse></g><g id="freepik--Stars--inject-223" class="animable" style="transform-origin: 459.785px 164.765px;"><polygon points="654.13 195.03 672.51 232.26 713.59 238.23 683.86 267.21 690.88 308.13 654.13 288.81 617.39 308.13 624.4 267.21 594.67 238.23 635.76 232.26 654.13 195.03" style="fill: rgb(197, 63, 63); transform-origin: 654.13px 251.58px;" id="elh4drt90wf8d" class="animable"></polygon><polygon points="714.58 135.05 721.42 148.91 736.72 151.13 725.65 161.92 728.26 177.16 714.58 169.96 700.9 177.16 703.51 161.92 692.44 151.13 707.74 148.91 714.58 135.05" style="fill: rgb(197, 63, 63); transform-origin: 714.58px 156.105px;" id="elt0cbeqi177" class="animable"></polygon><polygon points="204.99 27.28 211.83 41.14 227.13 43.36 216.06 54.15 218.68 69.39 204.99 62.2 191.31 69.39 193.92 54.15 182.85 43.36 198.15 41.14 204.99 27.28" style="fill: rgb(197, 63, 63); transform-origin: 204.99px 48.335px;" id="el9hpg2nv7is" class="animable"></polygon><polygon points="659.23 55.27 666.07 69.14 681.37 71.36 670.3 82.15 672.91 97.38 659.23 90.19 645.55 97.38 648.16 82.15 637.09 71.36 652.39 69.14 659.23 55.27" style="fill: rgb(197, 63, 63); transform-origin: 659.23px 76.325px;" id="el85t1t4m3zms" class="animable"></polygon><polygon points="316.45 21.4 320.93 30.48 330.94 31.93 323.7 38.99 325.41 48.96 316.45 44.26 307.5 48.96 309.21 38.99 301.96 31.93 311.98 30.48 316.45 21.4" style="fill: rgb(197, 63, 63); transform-origin: 316.45px 35.18px;" id="el8zuhmq9xz25" class="animable"></polygon></g><g id="freepik--Flag--inject-223" class="animable" style="transform-origin: 339.845px 147.815px;"><g id="el5qpsecdeier"><g style="opacity: 0.17; transform-origin: 339.845px 147.815px;" class="animable"><path d="M112.89,102.72c-9.41-2.81-18.82-6.34-28.23-10.69v-17.66c9.41,4.35,18.82,7.88,28.23,10.69v17.66Z" id="elbtf5pagf1xt" class="animable" style="transform-origin: 98.775px 88.545px;"></path><path d="M169.51,111.62c-9.41-.27-18.82-1.08-28.23-2.53v-17.66c9.41,1.45,18.82,2.26,28.23,2.53v17.66Z" id="elzhqy0s8l99" class="animable" style="transform-origin: 155.395px 101.525px;"></path><path d="M226.13,107.42c-9.41,1.55-18.82,2.73-28.23,3.46v-17.66c9.41-.73,18.82-1.91,28.23-3.46v17.66Z" id="elfwrjlhgunpc" class="animable" style="transform-origin: 212.015px 100.32px;"></path><path d="M282.74,94.48c-9.41,2.64-18.82,5.09-28.23,7.28v-17.66c9.41-2.18,18.82-4.64,28.23-7.28v17.66Z" id="eln8eotzk5enn" class="animable" style="transform-origin: 268.625px 89.29px;"></path><path d="M339.36,77.14c-9.41,3.01-18.82,6.01-28.23,8.92v-17.66c9.41-2.91,18.82-5.92,28.23-8.92v17.66Z" id="elb5vvyw81zz" class="animable" style="transform-origin: 325.245px 72.77px;"></path><path d="M395.97,59.76c-9.41,2.65-18.82,5.48-28.23,8.39v-17.66c9.41-2.92,18.82-5.75,28.23-8.39v17.66Z" id="el4mr0i2ppcz" class="animable" style="transform-origin: 381.855px 55.125px;"></path><path d="M452.59,46.71c-9.41,1.57-18.82,3.5-28.23,5.7v-17.66c9.41-2.2,18.82-4.13,28.23-5.7v17.66Z" id="elducqgvewahb" class="animable" style="transform-origin: 438.475px 40.73px;"></path><path d="M509.21,42.32c-9.41-.23-18.82,.07-28.23,.83V25.49c9.41-.76,18.82-1.06,28.23-.83v17.66Z" id="elz5e0797deb" class="animable" style="transform-origin: 495.095px 33.8672px;"></path><path d="M565.82,50.96c-9.41-2.76-18.82-4.8-28.23-6.21V27.09c9.41,1.41,18.82,3.45,28.23,6.21v17.66Z" id="eljpkxmtl57b8" class="animable" style="transform-origin: 551.705px 39.025px;"></path><path d="M622.44,76.98c-9.41-6.01-18.82-11.12-28.23-15.42v-17.66c9.41,4.3,18.82,9.41,28.23,15.42v17.66Z" id="ela08n0gm7mud" class="animable" style="transform-origin: 608.325px 60.44px;"></path><path d="M566.79,68.62c9.41,2.81,18.82,6.34,28.23,10.69v-17.66c-9.41-4.35-18.82-7.88-28.23-10.69v17.66Z" id="elj3imf8xq1m" class="animable" style="transform-origin: 580.905px 65.135px;"></path><path d="M510.17,59.72c9.41,.27,18.82,1.08,28.23,2.53v-17.66c-9.41-1.45-18.82-2.26-28.23-2.53v17.66Z" id="elziztl98sxvl" class="animable" style="transform-origin: 524.285px 52.155px;"></path><path d="M453.56,63.92c9.41-1.55,18.82-2.73,28.23-3.46v-17.66c-9.41,.73-18.82,1.91-28.23,3.46v17.66Z" id="elw022pqi8py" class="animable" style="transform-origin: 467.675px 53.36px;"></path><path d="M396.94,76.86c9.41-2.64,18.82-5.09,28.23-7.28v-17.66c-9.41,2.18-18.82,4.64-28.23,7.28v17.66Z" id="elhr8svluhfp8" class="animable" style="transform-origin: 411.055px 64.39px;"></path><path d="M340.33,94.2c9.41-3.01,18.82-6.01,28.23-8.92v-17.66c-9.41,2.91-18.82,5.92-28.23,8.92v17.66Z" id="elz0riz2nw14" class="animable" style="transform-origin: 354.445px 80.91px;"></path><path d="M283.71,111.58c9.41-2.65,18.82-5.48,28.23-8.39v-17.66c-9.41,2.92-18.82,5.75-28.23,8.39v17.66Z" id="eldppmnicf84m" class="animable" style="transform-origin: 297.825px 98.555px;"></path><path d="M227.09,124.63c9.41-1.57,18.82-3.5,28.23-5.7v-17.66c-9.41,2.2-18.82,4.13-28.23,5.7v17.66Z" id="el2ac72ap6zoh" class="animable" style="transform-origin: 241.205px 112.95px;"></path><path d="M170.48,129.02c9.41,.23,18.82-.07,28.23-.83v-17.66c-9.41,.76-18.82,1.06-28.23,.83v17.66Z" id="el77pjh5sq9ni" class="animable" style="transform-origin: 184.595px 119.813px;"></path><path d="M113.86,120.38c9.41,2.76,18.82,4.8,28.23,6.21v-17.66c-9.41-1.41-18.82-3.45-28.23-6.21v17.66Z" id="elr196m1ajqfh" class="animable" style="transform-origin: 127.975px 114.655px;"></path><path d="M57.25,94.36c9.41,6.01,18.82,11.12,28.23,15.42v-17.66c-9.41-4.3-18.82-9.41-28.23-15.42v17.66Z" id="el1bcv7vzl992" class="animable" style="transform-origin: 71.365px 93.24px;"></path><path d="M112.89,138.21c-9.41-2.81-18.82-6.34-28.23-10.69v-17.66c9.41,4.35,18.82,7.88,28.23,10.69v17.66Z" id="ell06u7shh25e" class="animable" style="transform-origin: 98.775px 124.035px;"></path><path d="M169.51,147.11c-9.41-.27-18.82-1.08-28.23-2.53v-17.66c9.41,1.45,18.82,2.26,28.23,2.53v17.66Z" id="elscill26rjea" class="animable" style="transform-origin: 155.395px 137.015px;"></path><path d="M226.13,142.91c-9.41,1.55-18.82,2.73-28.23,3.46v-17.66c9.41-.73,18.82-1.91,28.23-3.46v17.66Z" id="el7ei3u45ee1p" class="animable" style="transform-origin: 212.015px 135.81px;"></path><path d="M282.74,129.96c-9.41,2.64-18.82,5.09-28.23,7.28v-17.66c9.41-2.18,18.82-4.64,28.23-7.28v17.66Z" id="el0855wfk7tq99" class="animable" style="transform-origin: 268.625px 124.77px;"></path><path d="M339.36,112.62c-9.41,3-18.82,6.01-28.23,8.92v-17.66c9.41-2.91,18.82-5.92,28.23-8.92v17.66Z" id="elc9vl6jjqtsg" class="animable" style="transform-origin: 325.245px 108.25px;"></path><path d="M395.97,95.25c-9.41,2.65-18.82,5.48-28.23,8.39v-17.66c9.41-2.92,18.82-5.75,28.23-8.39v17.66Z" id="elgok29z149xd" class="animable" style="transform-origin: 381.855px 90.615px;"></path><path d="M452.59,82.19c-9.41,1.57-18.82,3.5-28.23,5.7v-17.66c9.41-2.2,18.82-4.13,28.23-5.7v17.66Z" id="eluysrbxlzbne" class="animable" style="transform-origin: 438.475px 76.21px;"></path><path d="M509.21,77.81c-9.41-.23-18.82,.07-28.23,.83v-17.66c9.41-.76,18.82-1.06,28.23-.83v17.66Z" id="elfpedaofn0lk" class="animable" style="transform-origin: 495.095px 69.3572px;"></path><path d="M565.82,86.45c-9.41-2.76-18.82-4.8-28.23-6.21v-17.66c9.41,1.41,18.82,3.45,28.23,6.21v17.66Z" id="elk9bve0qd0d8" class="animable" style="transform-origin: 551.705px 74.515px;"></path><path d="M622.44,112.47c-9.41-6.01-18.82-11.12-28.23-15.42v-17.66c9.41,4.3,18.82,9.41,28.23,15.42v17.66Z" id="elsmnjkrqqrxo" class="animable" style="transform-origin: 608.325px 95.93px;"></path><path d="M566.79,104.11c9.41,2.81,18.82,6.34,28.23,10.69v-17.66c-9.41-4.35-18.82-7.88-28.23-10.69v17.66Z" id="eljwpd70ee1ir" class="animable" style="transform-origin: 580.905px 100.625px;"></path><path d="M510.17,95.2c9.41,.27,18.82,1.08,28.23,2.53v-17.66c-9.41-1.45-18.82-2.26-28.23-2.53v17.66Z" id="elkhs3eieue8" class="animable" style="transform-origin: 524.285px 87.635px;"></path><path d="M453.56,99.4c9.41-1.55,18.82-2.73,28.23-3.46v-17.66c-9.41,.73-18.82,1.91-28.23,3.46v17.66Z" id="el6f3v96i7wmy" class="animable" style="transform-origin: 467.675px 88.84px;"></path><path d="M396.94,112.35c9.41-2.64,18.82-5.09,28.23-7.28v-17.66c-9.41,2.18-18.82,4.64-28.23,7.28v17.66Z" id="elhtg86fto9xp" class="animable" style="transform-origin: 411.055px 99.88px;"></path><path d="M340.33,129.69c9.41-3.01,18.82-6.01,28.23-8.92v-17.66c-9.41,2.91-18.82,5.92-28.23,8.92v17.66Z" id="eleitb94ahzf" class="animable" style="transform-origin: 354.445px 116.4px;"></path><path d="M283.71,147.06c9.41-2.65,18.82-5.48,28.23-8.39v-17.66c-9.41,2.92-18.82,5.75-28.23,8.39v17.66Z" id="elrf1b5eoztf" class="animable" style="transform-origin: 297.825px 134.035px;"></path><path d="M227.09,160.12c9.41-1.57,18.82-3.5,28.23-5.7v-17.66c-9.41,2.2-18.82,4.13-28.23,5.7v17.66Z" id="elt2tnutqih69" class="animable" style="transform-origin: 241.205px 148.44px;"></path><path d="M170.48,164.51c9.41,.23,18.82-.07,28.23-.83v-17.66c-9.41,.76-18.82,1.06-28.23,.83v17.66Z" id="elm514yglhbpd" class="animable" style="transform-origin: 184.595px 155.303px;"></path><path d="M113.86,155.87c9.41,2.76,18.82,4.8,28.23,6.21v-17.66c-9.41-1.41-18.82-3.45-28.23-6.21v17.66Z" id="elzpkvwl4w4d" class="animable" style="transform-origin: 127.975px 150.145px;"></path><path d="M57.25,129.84c9.41,6.01,18.82,11.12,28.23,15.42v-17.66c-9.41-4.3-18.82-9.41-28.23-15.42v17.66Z" id="elpckxb8k0o0p" class="animable" style="transform-origin: 71.365px 128.72px;"></path><path d="M112.89,173.69c-9.41-2.81-18.82-6.34-28.23-10.69v-17.66c9.41,4.35,18.82,7.88,28.23,10.69v17.66Z" id="el188v4kck39a" class="animable" style="transform-origin: 98.775px 159.515px;"></path><path d="M169.51,182.59c-9.41-.27-18.82-1.08-28.23-2.53v-17.66c9.41,1.45,18.82,2.26,28.23,2.53v17.66Z" id="elcv40xa94kxo" class="animable" style="transform-origin: 155.395px 172.495px;"></path><path d="M226.13,178.39c-9.41,1.55-18.82,2.73-28.23,3.46v-17.66c9.41-.73,18.82-1.91,28.23-3.46v17.66Z" id="elhedwfrp4ll8" class="animable" style="transform-origin: 212.015px 171.29px;"></path><path d="M282.74,165.45c-9.41,2.64-18.82,5.09-28.23,7.28v-17.66c9.41-2.18,18.82-4.64,28.23-7.28v17.66Z" id="elc6navivs0iw" class="animable" style="transform-origin: 268.625px 160.26px;"></path><path d="M339.36,148.11c-9.41,3.01-18.82,6.01-28.23,8.92v-17.66c9.41-2.91,18.82-5.92,28.23-8.92v17.66Z" id="ell93qip7i2zl" class="animable" style="transform-origin: 325.245px 143.74px;"></path><path d="M395.97,130.74c-9.41,2.65-18.82,5.48-28.23,8.39v-17.66c9.41-2.92,18.82-5.75,28.23-8.39v17.66Z" id="eln1r45fa41t7" class="animable" style="transform-origin: 381.855px 126.105px;"></path><path d="M452.59,117.68c-9.41,1.57-18.82,3.5-28.23,5.7v-17.66c9.41-2.2,18.82-4.13,28.23-5.7v17.66Z" id="elsu0papwhve" class="animable" style="transform-origin: 438.475px 111.7px;"></path><path d="M509.21,113.29c-9.41-.23-18.82,.07-28.23,.83v-17.66c9.41-.76,18.82-1.06,28.23-.83v17.66Z" id="elpz1mqzqaspm" class="animable" style="transform-origin: 495.095px 104.837px;"></path><path d="M565.82,121.93c-9.41-2.76-18.82-4.8-28.23-6.21v-17.66c9.41,1.41,18.82,3.45,28.23,6.21v17.66Z" id="el0higahp4edpn" class="animable" style="transform-origin: 551.705px 109.995px;"></path><path d="M622.44,147.96c-9.41-6.01-18.82-11.12-28.23-15.42v-17.66c9.41,4.3,18.82,9.41,28.23,15.42v17.66Z" id="eld1rgugylzz7" class="animable" style="transform-origin: 608.325px 131.42px;"></path><path d="M566.79,139.59c9.41,2.81,18.82,6.34,28.23,10.69v-17.66c-9.41-4.35-18.82-7.88-28.23-10.69v17.66Z" id="el0jvbpt3h0l2n" class="animable" style="transform-origin: 580.905px 136.105px;"></path><path d="M510.17,130.69c9.41,.27,18.82,1.08,28.23,2.53v-17.66c-9.41-1.45-18.82-2.26-28.23-2.53v17.66Z" id="eloz1a4ri74zl" class="animable" style="transform-origin: 524.285px 123.125px;"></path><path d="M453.56,134.89c9.41-1.55,18.82-2.73,28.23-3.46v-17.66c-9.41,.73-18.82,1.91-28.23,3.46v17.66Z" id="eludmigshzchf" class="animable" style="transform-origin: 467.675px 124.33px;"></path><path d="M396.94,147.84c9.41-2.64,18.82-5.09,28.23-7.28v-17.66c-9.41,2.18-18.82,4.64-28.23,7.28v17.66Z" id="elrgpfjxou5oi" class="animable" style="transform-origin: 411.055px 135.37px;"></path><path d="M340.33,165.17c9.41-3.01,18.82-6.01,28.23-8.92v-17.66c-9.41,2.91-18.82,5.92-28.23,8.92v17.66Z" id="elhr6edsnyih7" class="animable" style="transform-origin: 354.445px 151.88px;"></path><path d="M283.71,182.55c9.41-2.65,18.82-5.48,28.23-8.39v-17.66c-9.41,2.92-18.82,5.75-28.23,8.39v17.66Z" id="eluztrb7ry3uq" class="animable" style="transform-origin: 297.825px 169.525px;"></path><path d="M227.09,195.61c9.41-1.57,18.82-3.5,28.23-5.7v-17.66c-9.41,2.2-18.82,4.13-28.23,5.7v17.66Z" id="elw8akou1vpwa" class="animable" style="transform-origin: 241.205px 183.93px;"></path><path d="M170.48,199.99c9.41,.23,18.82-.07,28.23-.83v-17.66c-9.41,.76-18.82,1.06-28.23,.83v17.66Z" id="elp87m9lodhgi" class="animable" style="transform-origin: 184.595px 190.783px;"></path><path d="M113.86,191.35c9.41,2.76,18.82,4.8,28.23,6.21v-17.66c-9.41-1.41-18.82-3.45-28.23-6.21v17.66Z" id="el6yzxrt06ex4" class="animable" style="transform-origin: 127.975px 185.625px;"></path><path d="M57.25,165.33c9.41,6.01,18.82,11.12,28.23,15.42v-17.66c-9.41-4.3-18.82-9.41-28.23-15.42v17.66Z" id="elijyvsfumnz" class="animable" style="transform-origin: 71.365px 164.21px;"></path><path d="M112.89,209.18c-9.41-2.81-18.82-6.34-28.23-10.69v-17.66c9.41,4.35,18.82,7.88,28.23,10.69v17.66Z" id="elg7z8rpgk6te" class="animable" style="transform-origin: 98.775px 195.005px;"></path><path d="M169.51,218.08c-9.41-.27-18.82-1.08-28.23-2.53v-17.66c9.41,1.45,18.82,2.26,28.23,2.53v17.66Z" id="el766z5u1o2fk" class="animable" style="transform-origin: 155.395px 207.985px;"></path><path d="M226.13,213.88c-9.41,1.55-18.82,2.73-28.23,3.46v-17.66c9.41-.73,18.82-1.91,28.23-3.46v17.66Z" id="eltd3a3clsnc" class="animable" style="transform-origin: 212.015px 206.78px;"></path><path d="M282.74,200.93c-9.41,2.64-18.82,5.09-28.23,7.28v-17.66c9.41-2.18,18.82-4.64,28.23-7.28v17.66Z" id="elak7ehm2ryn" class="animable" style="transform-origin: 268.625px 195.74px;"></path><path d="M339.36,183.6c-9.41,3.01-18.82,6.01-28.23,8.92v-17.66c9.41-2.91,18.82-5.92,28.23-8.92v17.66Z" id="elzc29op6cx3" class="animable" style="transform-origin: 325.245px 179.23px;"></path><path d="M395.97,166.22c-9.41,2.65-18.82,5.48-28.23,8.39v-17.66c9.41-2.92,18.82-5.75,28.23-8.39v17.66Z" id="el4e8sui1tk8" class="animable" style="transform-origin: 381.855px 161.585px;"></path><path d="M452.59,153.16c-9.41,1.57-18.82,3.5-28.23,5.7v-17.66c9.41-2.2,18.82-4.13,28.23-5.7v17.66Z" id="elxumkx20hxj" class="animable" style="transform-origin: 438.475px 147.18px;"></path><path d="M509.21,148.78c-9.41-.23-18.82,.07-28.23,.83v-17.66c9.41-.76,18.82-1.06,28.23-.83v17.66Z" id="elzmffdkab6ob" class="animable" style="transform-origin: 495.095px 140.327px;"></path><path d="M565.82,157.42c-9.41-2.76-18.82-4.8-28.23-6.21v-17.66c9.41,1.41,18.82,3.45,28.23,6.21v17.66Z" id="elhrwxo6vqwmw" class="animable" style="transform-origin: 551.705px 145.485px;"></path><path d="M622.44,183.44c-9.41-6.01-18.82-11.12-28.23-15.42v-17.66c9.41,4.3,18.82,9.41,28.23,15.42v17.66Z" id="elr1mun4bbcq" class="animable" style="transform-origin: 608.325px 166.9px;"></path><path d="M566.79,175.08c9.41,2.81,18.82,6.34,28.23,10.69v-17.66c-9.41-4.35-18.82-7.88-28.23-10.69v17.66Z" id="el5fwmvq6xd7" class="animable" style="transform-origin: 580.905px 171.595px;"></path><path d="M510.17,166.18c9.41,.27,18.82,1.08,28.23,2.53v-17.66c-9.41-1.45-18.82-2.26-28.23-2.53v17.66Z" id="elrwcrx3lmga" class="animable" style="transform-origin: 524.285px 158.615px;"></path><path d="M453.56,170.38c9.41-1.55,18.82-2.73,28.23-3.46v-17.66c-9.41,.73-18.82,1.91-28.23,3.46v17.66Z" id="elpsarzmyqac9" class="animable" style="transform-origin: 467.675px 159.82px;"></path><path d="M396.94,183.32c9.41-2.64,18.82-5.09,28.23-7.28v-17.66c-9.41,2.18-18.82,4.64-28.23,7.28v17.66Z" id="elen5e63n3qn" class="animable" style="transform-origin: 411.055px 170.85px;"></path><path d="M340.33,200.66c9.41-3.01,18.82-6.01,28.23-8.92v-17.66c-9.41,2.91-18.82,5.92-28.23,8.92v17.66Z" id="elgwr7ke06au" class="animable" style="transform-origin: 354.445px 187.37px;"></path><path d="M283.71,218.04c9.41-2.65,18.82-5.48,28.23-8.39v-17.66c-9.41,2.92-18.82,5.75-28.23,8.39v17.66Z" id="el43ml7999o55" class="animable" style="transform-origin: 297.825px 205.015px;"></path><path d="M227.09,231.09c9.41-1.57,18.82-3.5,28.23-5.7v-17.66c-9.41,2.2-18.82,4.13-28.23,5.7v17.66Z" id="elgf7asi65jx" class="animable" style="transform-origin: 241.205px 219.41px;"></path><path d="M170.48,235.48c9.41,.23,18.82-.07,28.23-.83v-17.66c-9.41,.76-18.82,1.06-28.23,.83v17.66Z" id="el33bo0t6p9au" class="animable" style="transform-origin: 184.595px 226.273px;"></path><path d="M113.86,226.84c9.41,2.76,18.82,4.8,28.23,6.21v-17.66c-9.41-1.41-18.82-3.45-28.23-6.21v17.66Z" id="el2rjj6z325sk" class="animable" style="transform-origin: 127.975px 221.115px;"></path><path d="M57.25,200.82c9.41,6.01,18.82,11.12,28.23,15.42v-17.66c-9.41-4.3-18.82-9.41-28.23-15.42v17.66Z" id="el5dy74kvqzzm" class="animable" style="transform-origin: 71.365px 199.7px;"></path><path d="M112.89,244.66c-9.41-2.81-18.82-6.34-28.23-10.69v-17.66c9.41,4.35,18.82,7.88,28.23,10.69v17.66Z" id="el9szo2bimwnh" class="animable" style="transform-origin: 98.775px 230.485px;"></path><path d="M169.51,253.57c-9.41-.27-18.82-1.08-28.23-2.53v-17.66c9.41,1.45,18.82,2.26,28.23,2.53v17.66Z" id="elam0jfm7p34d" class="animable" style="transform-origin: 155.395px 243.475px;"></path><path d="M226.13,249.37c-9.41,1.55-18.82,2.73-28.23,3.46v-17.66c9.41-.73,18.82-1.91,28.23-3.46v17.66Z" id="eljti81y1q0er" class="animable" style="transform-origin: 212.015px 242.27px;"></path><path d="M282.74,236.42c-9.41,2.64-18.82,5.09-28.23,7.28v-17.66c9.41-2.18,18.82-4.64,28.23-7.28v17.66Z" id="elv663brwdhu" class="animable" style="transform-origin: 268.625px 231.23px;"></path><path d="M339.36,219.08c-9.41,3.01-18.82,6.01-28.23,8.92v-17.66c9.41-2.91,18.82-5.92,28.23-8.92v17.66Z" id="el8vpqtmmytap" class="animable" style="transform-origin: 325.245px 214.71px;"></path><path d="M395.97,201.71c-9.41,2.65-18.82,5.48-28.23,8.39v-17.66c9.41-2.92,18.82-5.75,28.23-8.39v17.66Z" id="elvmejn0k6fcl" class="animable" style="transform-origin: 381.855px 197.075px;"></path><path d="M452.59,188.65c-9.41,1.57-18.82,3.5-28.23,5.7v-17.66c9.41-2.2,18.82-4.13,28.23-5.7v17.66Z" id="elxfr906fqbmb" class="animable" style="transform-origin: 438.475px 182.67px;"></path><path d="M509.21,184.26c-9.41-.23-18.82,.07-28.23,.83v-17.66c9.41-.76,18.82-1.06,28.23-.83v17.66Z" id="elizsrmwsfn2" class="animable" style="transform-origin: 495.095px 175.807px;"></path><path d="M565.82,192.91c-9.41-2.76-18.82-4.8-28.23-6.21v-17.66c9.41,1.41,18.82,3.45,28.23,6.21v17.66Z" id="elvb7zmss6tql" class="animable" style="transform-origin: 551.705px 180.975px;"></path><path d="M622.44,218.93c-9.41-6.01-18.82-11.12-28.23-15.42v-17.66c9.41,4.3,18.82,9.41,28.23,15.42v17.66Z" id="elfwack6kuz4g" class="animable" style="transform-origin: 608.325px 202.39px;"></path><path d="M566.79,210.57c9.41,2.81,18.82,6.34,28.23,10.69v-17.66c-9.41-4.35-18.82-7.88-28.23-10.69v17.66Z" id="eli5pzeee8bq" class="animable" style="transform-origin: 580.905px 207.085px;"></path><path d="M510.17,201.66c9.41,.27,18.82,1.08,28.23,2.53v-17.66c-9.41-1.45-18.82-2.26-28.23-2.53v17.66Z" id="el3iy6fx5uwbw" class="animable" style="transform-origin: 524.285px 194.095px;"></path><path d="M453.56,205.86c9.41-1.55,18.82-2.73,28.23-3.46v-17.66c-9.41,.73-18.82,1.91-28.23,3.46v17.66Z" id="elw0gc27zc20p" class="animable" style="transform-origin: 467.675px 195.3px;"></path><path d="M396.94,218.81c9.41-2.64,18.82-5.09,28.23-7.28v-17.66c-9.41,2.18-18.82,4.64-28.23,7.28v17.66Z" id="elsc8z610j2yr" class="animable" style="transform-origin: 411.055px 206.34px;"></path><path d="M340.33,236.15c9.41-3.01,18.82-6.01,28.23-8.92v-17.66c-9.41,2.91-18.82,5.92-28.23,8.92v17.66Z" id="elt6jkl77tvhc" class="animable" style="transform-origin: 354.445px 222.86px;"></path><path d="M283.71,253.52c9.41-2.65,18.82-5.48,28.23-8.39v-17.66c-9.41,2.92-18.82,5.75-28.23,8.39v17.66Z" id="elwy4ez21i0a" class="animable" style="transform-origin: 297.825px 240.495px;"></path><path d="M227.09,266.58c9.41-1.57,18.82-3.5,28.23-5.7v-17.66c-9.41,2.2-18.82,4.13-28.23,5.7v17.66Z" id="eluxg8rfd0iwd" class="animable" style="transform-origin: 241.205px 254.9px;"></path><path d="M170.48,270.97c9.41,.23,18.82-.07,28.23-.83v-17.66c-9.41,.76-18.82,1.06-28.23,.83v17.66Z" id="eln8qiliz3q6" class="animable" style="transform-origin: 184.595px 261.763px;"></path><path d="M113.86,262.32c9.41,2.76,18.82,4.8,28.23,6.21v-17.66c-9.41-1.41-18.82-3.45-28.23-6.21v17.66Z" id="elvv2df5dyfr" class="animable" style="transform-origin: 127.975px 256.595px;"></path><path d="M57.25,236.3c9.41,6.01,18.82,11.12,28.23,15.42v-17.66c-9.41-4.3-18.82-9.41-28.23-15.42v17.66Z" id="elidmrhbcskr9" class="animable" style="transform-origin: 71.365px 235.18px;"></path></g></g></g><g id="freepik--Car--inject-223" class="animable animator-active" style="transform-origin: 338.013px 306.858px;"><g id="elwz5l7fshb6a" class="animable" style="transform-origin: 338.013px 306.858px;"><path d="M236.2,420.44l36.18-11.42,59.29-85.06L52.64,258.87s-5.8,9.02-7.09,14.82c-1.29,5.8-3.22,42.53-3.22,42.53l6.2,11.13,187.67,93.08Z" style="fill: rgb(38, 50, 56); stroke: rgb(38, 50, 56); stroke-miterlimit: 10; transform-origin: 187px 339.655px;" id="elmzdjyimu0xm" class="animable"></path><path d="M42.24,164.45s-10.02,28.7-6.38,35.53,16.4,10.02,16.4,10.02l.91,7.74,22.78,.46,4.56-7.74s-16.4-.91-20.04-5.01c-3.64-4.1-3.19-35.53-3.19-35.53l86.31-6.13,.25-4.8-96.57,4.56s-.91-3.64-5.01,.91Z" style="fill: rgb(38, 50, 56); stroke: rgb(38, 50, 56); stroke-miterlimit: 10; transform-origin: 89.4519px 188.595px;" id="elblj5qn5xq5" class="animable"></path><path d="M346.26,382.13c-4.96-35.88-24.9-62.77-44.54-60.06l-32.97,5.62,5.57,40.3c-.55,7.55-.32,15.63,.83,23.98s3.13,16.19,5.71,23.3l5.86,42.38,32.97-5.62c19.63-2.72,31.53-34.01,26.56-69.89Z" style="fill: rgb(38, 50, 56); stroke: rgb(38, 50, 56); stroke-miterlimit: 10; transform-origin: 308.065px 389.766px;" id="elqbuk5lmumsd" class="animable"></path><path d="M120.87,316.52c-3.59-25.98-18.03-45.45-32.25-43.49l-23.87,4.07,4.04,29.18c-.4,5.46-.23,11.32,.6,17.36,.84,6.04,2.26,11.72,4.13,16.87l4.24,30.68,23.87-4.07c14.22-1.97,22.83-24.62,19.24-50.61Z" style="fill: rgb(38, 50, 56); stroke: rgb(38, 50, 56); stroke-miterlimit: 10; transform-origin: 93.2173px 322.042px;" id="el7qcpunrtzuy" class="animable"></path><g id="elfp16p97paan" class="animable" style="transform-origin: 70.94px 324.26px;"><g id="elxs1wgyq23i9"><ellipse cx="70.94" cy="324.26" rx="22.62" ry="47.77" style="fill: rgb(38, 50, 56); stroke: rgb(38, 50, 56); stroke-miterlimit: 10; transform-origin: 70.94px 324.26px; transform: rotate(-7.87deg);" class="animable"></ellipse></g><g id="elwslczzd8hz"><ellipse cx="69.24" cy="324.49" rx="16.86" ry="39.22" style="fill: rgb(255, 255, 255); stroke: rgb(38, 50, 56); stroke-miterlimit: 10; transform-origin: 69.24px 324.49px; transform: rotate(-7.87deg);" class="animable"></ellipse></g><path d="M79.52,322.54c.81,5.89-.79,10.98-3.57,11.36s-5.71-4.08-6.52-9.96c-.81-5.89,.79-10.98,3.57-11.36s5.71,4.08,6.52,9.96Z" style="fill: rgb(255, 255, 255); stroke: rgb(38, 50, 56); stroke-miterlimit: 10; transform-origin: 74.475px 323.24px;" id="el7s7l10f2ur9" class="animable"></path></g><path d="M132.94,163.72l-53.91,48.94s-23.64-2.07-27.37,7.88-16.59,87.09-13.27,94.97c3.32,7.88,8.71,14.52,8.71,14.52,0,0,0-42.72,2.9-47.69,2.9-4.98,7.88-13.27,19.08-5.39,11.2,7.88,18.66,29.03,24.88,50.18,6.22,21.15,4.56,35.67,4.56,35.67l137.69,57.65s-.41-58.48,2.07-69.26c2.49-10.78,12.44-27.79,31.52-26.54,19.08,1.24,41.89,24.05,48.11,51.43,6.22,27.37,8.71,54.33,8.71,54.33v26.13s60.13,16.59,119.02,9.12c58.89-7.46,178.33-37.32,190.77-48.52,12.44-11.2-4.56-29.86-4.56-29.86,0,0,11.2-36.91,8.71-46.03-2.49-9.12-14.52-17-14.52-17,0,0-9.54-31.1-25.71-44.79-16.17-13.69-123.59-45.62-123.59-45.62,0,0-91.24-71.33-104.09-77.14-12.86-5.81-57.65-10.37-61.38-10.37s-54.33-.83-75.89,.83c-46.79,3.6-90.41,3.73-102.44,16.59Z" style="fill: rgb(197, 63, 63); stroke: rgb(38, 50, 56); stroke-miterlimit: 10; transform-origin: 339.405px 306.858px;" id="eljzl13ks6su8" class="animable"></path><g id="el6g87rqu9c2k"><g style="opacity: 0.26; transform-origin: 350.621px 357.411px;" class="animable"><path d="M631.85,387.26s11.2-36.91,8.71-46.03c-2.49-9.12-14.52-17-14.52-17,0,0-9.54-31.1-25.71-44.79-5.32-4.5-20.52-10.98-38.52-17.65,4.18,6.27,8.56,14.14,6.63,17.15l-148.37,30.16s-18.06-9.65-45.8-15.72c-27.74-6.08-24.7-1.9-43.7-7.98-19-6.08-24.32-14.06-44.08-16.34-19.76-2.28-32.3,0-32.3,0,0,0,25.46-.76,39.52,6.84,14.06,7.6,12.16,10.64,.38,13.68-11.78,3.04-27.74-.76-32.3-2.28-4.56-1.52-14.82-3.04-14.82-3.04,0,0,20.9,7.6,35.72,11.4,14.82,3.8,19.76-5.32,47.88-1.9,28.12,3.42,34.2,12.54,32.68,21.66-1.52,9.12-15.58,12.16-30.78,11.02-15.2-1.14-38.76-4.56-65.36-19.38-26.6-14.82-47.88-19.38-50.16-19.76s36.1,13.3,39.14,21.66c3.04,8.36,0,24.32-16.72,25.46-16.72,1.14-23.56-15.2-33.06-25.08-9.5-9.88-26.98-13.68-26.98-13.68,0,0,17.48,8.74,26.22,19.38s17.48,28.5,31.92,33.06c.52,.17,1.04,.29,1.56,.4,3.4-10.69,13.22-24.99,30.77-23.85,6.54,.43,13.53,3.39,20.13,8.21,21.88-.15,36.84,5.92,45.2,17.9,8.74,12.54,3.8,24.7-8.74,25.84-2.95,.27-5.73,.41-8.26,.47,6.06,27.03,8.49,53.34,8.49,53.34v26.13s60.13,16.59,119.02,9.12c58.89-7.46,178.33-37.32,190.77-48.52,12.44-11.2-4.56-29.86-4.56-29.86Z" id="elj2qknidg7p" class="animable" style="transform-origin: 410.146px 364.691px;"></path><path d="M194.91,335.55c-16.53-16.92-39.86-20.72-60.9-29.33-15.83-6.47-17.62-25.54-30.93-40.65-13.31-15.11-30.57-18.34-30.57-18.34,0,0,16.55,5.4,24.82,21.22,8.27,15.83,7.91,28.78-1.44,27.7-9.35-1.08-14.75-23.74-21.58-29.13-6.83-5.4-14.03-6.47-14.03-6.47,0,0,11.51,4.68,19.06,20.14,7.55,15.47,16.19,30.21,26.98,33.81,10.79,3.6,23.02-.72,39.21,2.88,16.19,3.6,17.98,1.8,33.45,10.79,.96,.56,1.87,1.08,2.71,1.58,3.99,2.93,7.46,5.88,9.42,8.47,7.22,9.5,6.84,19-2.28,23.18-9.12,4.18-17.1,1.14-24.32-4.18-7.22-5.32-30.4-26.22-30.4-26.22,0,0,13.68,14.44,25.84,28.12,12.16,13.68,22.8,19.76,37.24,19,13.12-.69,29.7,2.7,39.17,8.17,.08-4.78,.18-9.58,.33-14.07-.51-.18-1.01-.37-1.5-.56-22.04-8.74-24.32-19.76-40.28-36.1Z" id="el74yliyg6kcw" class="animable" style="transform-origin: 148.485px 316.76px;"></path></g></g><path d="M162.44,270.88l-10.42-3.72s-2.98,1.12-3.35,2.98,2.2,3.94,2.2,3.94l14.52,4.47s1.82-5.19-2.94-7.66Z" style="fill: rgb(38, 50, 56); stroke: rgb(38, 50, 56); stroke-miterlimit: 10; transform-origin: 157.183px 272.855px;" id="elik25rjbj6ys" class="animable"></path><path d="M280,261.66s105.61,26.4,140.07,47.43c34.46,21.03,39.09,31.72,39.09,31.72l27.59,3.18,110.08-21.48s4.92-4.92,3.58-7.16c-1.34-2.24-10.29-23.27-29.09-36.69-11.26-8.04-32.61-21.05-47.94-30.2-25.17-8.28-46.63-14.66-46.63-14.66,0,0-5.41-4.23-13.77-10.7l-201.32,26.47,18.35,12.08Z" style="fill: rgb(38, 50, 56); stroke: rgb(38, 50, 56); stroke-miterlimit: 10; transform-origin: 431.151px 283.545px;" id="elmcnnml7vuf" class="animable"></path><g id="eln15r5llm7a" class="animable" style="transform-origin: 349.822px 212.007px;"><path d="M380.44,162.13s-35.01-2.15-68.94,0c-33.93,2.15-67.06,7.27-81.6,9.96,0,0-7.27,.54-7,7.54,.27,7,35.01,83.21,35.01,83.21l210.86-23.97s8.13-.98,7.97-5.07c0,0-67.17-52.51-94.36-71.09l-1.94-.59Z" style="fill: rgb(38, 50, 56); stroke: rgb(38, 50, 56); stroke-miterlimit: 10; transform-origin: 349.817px 212.007px;" id="elw8k6skaqw2" class="animable"></path><g id="elh2hi9f96eph" class="animable" style="transform-origin: 352.641px 207.005px;"><g id="elr5jg65weqyc"><path d="M244.92,233.89l102.87,18.74,42.79-4.86-162.05-52.07c4.42,10.89,10.74,25.43,16.39,38.2Z" style="fill: rgb(255, 255, 255); opacity: 0.21; transform-origin: 309.555px 224.165px;" class="animable"></path></g><g id="el4t9u75xlry9"><path d="M311.5,162.13c-27.28,1.73-54.02,5.38-71.02,8.14l232.73,67.45c1.87-.77,3.61-2,3.54-3.91,0,0-19.66-15.37-42.01-32.42l-106.16-40.01c-5.61,.15-11.35,.39-17.07,.75Z" style="fill: rgb(255, 255, 255); opacity: 0.21; transform-origin: 358.616px 199.55px;" class="animable"></path></g></g><path d="M380.44,162.13s-35.01-2.15-68.94,0c-33.93,2.15-67.06,7.27-81.6,9.96,0,0-7.27,.54-7,7.54,.27,7,35.01,83.21,35.01,83.21l210.86-23.97s8.13-.98,7.97-5.07c0,0-67.17-52.51-94.36-71.09l-1.94-.59Z" style="fill: none; stroke: rgb(38, 50, 56); stroke-miterlimit: 10; transform-origin: 349.817px 212.007px;" id="elbp4spx4g4cb" class="animable"></path></g><path d="M137.49,169.81s-34.26,29.71-38.81,37.6c-4.55,7.88-6.97,14.86-5.76,15.46,1.21,.61,139.48,43.97,140.69,44.27,1.21,.3,4.85,.61,4.85-1.21s.91-7.88,.91-7.88c0,0-29.41-75.2-34.87-80.05-5.46-4.85-48.21-11.83-57.31-11.22-9.1,.61-9.7,3.03-9.7,3.03Z" style="fill: rgb(38, 50, 56); stroke: rgb(38, 50, 56); stroke-miterlimit: 10; transform-origin: 165.99px 217.056px;" id="el71omgwgbxp" class="animable"></path><path d="M150.79,241.19c.9,.28,1.81,.57,2.72,.86,4.32-40,13.56-65.03,16.82-72.89-.96-.15-1.9-.3-2.84-.44-3.53,8.68-12.44,33.54-16.7,72.48Z" style="fill: rgb(133, 133, 133); stroke: rgb(38, 50, 56); stroke-miterlimit: 10; transform-origin: 160.56px 205.385px;" id="elegtqpnetjlt" class="animable"></path><g id="el1uzds40o4ob" class="animable" style="transform-origin: 205.755px 247.504px;"><path d="M210.71,237.6s-16.82-1.09-18.03,1.04-2.12,12.73-.3,13.95c1.82,1.21,22.44,0,23.95-1.21,1.52-1.21,1.52-6.67,1.21-9.7s-1.24-4.22-6.83-4.07Z" style="fill: rgb(133, 133, 133); stroke: rgb(38, 50, 56); stroke-miterlimit: 10; transform-origin: 204.527px 245.206px;" id="elyge68qotyoe" class="animable"></path><path d="M210.61,252.78s3.23,3.64,5.66,4.65c2.42,1.01,4.65-1.21,3.64-2.22-1.01-1.01-3.64-1.21-5.25-2.22l-1.62-1.01-2.42,.81Z" style="fill: rgb(133, 133, 133); stroke: rgb(38, 50, 56); stroke-miterlimit: 10; transform-origin: 215.385px 254.834px;" id="el49kgnlad0hq" class="animable"></path></g><path d="M218.19,262.34c9.27,2.9,15.17,4.74,15.42,4.8,1.21,.3,4.85,.61,4.85-1.21s.91-7.88,.91-7.88c0,0-6.73-17.21-14.35-35.69l-6.83,39.98Z" style="fill: rgb(133, 133, 133); stroke: rgb(38, 50, 56); stroke-miterlimit: 10; transform-origin: 228.78px 244.864px;" id="elly8o7l56n" class="animable"></path><g id="el6haor1p9873" class="animable" style="transform-origin: 430.324px 256.51px;"><path d="M491.66,248.58s1.08-2.15-.81-3.23-27.47-7.27-34.2-8.35c-6.73-1.08-71.1,11.04-78.91,14-7.81,2.96-9.69,7.27-8.89,9.16s28.55,15.08,34.2,15.89c5.66,.81,86.18-11.58,88.06-13.73,1.89-2.15-.54-6.19-.54-6.19l1.08-7.54Z" style="fill: rgb(197, 63, 63); stroke: rgb(38, 50, 56); stroke-miterlimit: 10; transform-origin: 430.324px 256.51px;" id="elppfvy41k5hp" class="animable"></path><path d="M431.03,256.1s-3.25,.31-6.35,2.01c-3.1,1.7-12.23,4.64-13.16,6.97-.93,2.32,1.39,3.87,1.86,3.71,.46-.15,73.52-11.3,74.45-11.92,.93-.62,2.63-9.13,1.55-9.13s-58.35,8.36-58.35,8.36Z" style="fill: rgb(38, 50, 56); stroke: rgb(38, 50, 56); stroke-miterlimit: 10; transform-origin: 450.515px 258.271px;" id="elxm1cu8r6ny" class="animable"></path><g id="eluvw0dqwtate" class="animable" style="transform-origin: 443.155px 259.375px;"><path d="M417.74,268.09c.89-.14,1.9-.3,3.02-.47,1.08-4.05,2.42-7.16,3.52-9.3-.99,.5-2.38,1.09-3.91,1.73-.92,2.17-1.85,4.86-2.62,8.05Z" style="fill: rgb(197, 63, 63); stroke: rgb(38, 50, 56); stroke-miterlimit: 10; transform-origin: 421.01px 263.21px;" id="el42i4kvj1jbv" class="animable"></path><path d="M438.84,264.81c.99-.15,1.98-.31,2.99-.47,1.15-4.59,3.01-8.14,4.54-10.48-1.25,.18-2.46,.36-3.61,.52-1.48,2.63-3,6.13-3.92,10.42Z" style="fill: rgb(197, 63, 63); stroke: rgb(38, 50, 56); stroke-miterlimit: 10; transform-origin: 442.605px 259.335px;" id="elpwdrsfe508c" class="animable"></path><path d="M468.57,250.65c-1.28,.18-2.57,.37-3.88,.56-1.77,2.59-3.79,6.1-5.43,10.41,1.09-.17,2.17-.34,3.24-.51,1.98-4.68,4.38-8.25,6.07-10.46Z" style="fill: rgb(197, 63, 63); stroke: rgb(38, 50, 56); stroke-miterlimit: 10; transform-origin: 463.915px 256.135px;" id="ely6ejs9rmgp8" class="animable"></path></g><path d="M412.14,270.49s-.93,.15-3.1-.31c-2.17-.46-24.3-12.07-27.55-15.17-3.25-3.1,2.94-3.41,13.78-3.71s28.64,4.8,28.64,4.8" style="fill: none; stroke: rgb(38, 50, 56); stroke-miterlimit: 10; transform-origin: 402.267px 260.9px;" id="el1bufsei96sb" class="animable"></path><path d="M491.7,258.94c-.64,.56-1.72,1.29-3.4,1.8-3.1,.93-79.1,13.47-84.36,13.31-5.26-.15-32.81-15.63-32.81-15.63l-1.88-1.18c-.61,1.18-.69,2.22-.39,2.92,.81,1.89,28.55,15.08,34.2,15.89,5.66,.81,86.18-11.58,88.06-13.73,.81-.93,.82-2.21,.57-3.37Z" style="fill: rgb(133, 133, 133); stroke: rgb(38, 50, 56); stroke-miterlimit: 10; transform-origin: 430.262px 266.664px;" id="elg05eomu63gi" class="animable"></path></g><g id="elbuvflvlobg6" class="animable" style="transform-origin: 547.427px 345.409px;"><path d="M588.4,320.96s-83.55,14.24-90.29,16.48c-6.74,2.25-10.86,6.74-10.12,13.86,.75,7.12,3,16.48,10.12,18.36s49.83-3.75,76.43-12.36c26.6-8.62,33.72-13.86,32.22-18.73-1.5-4.87-11.99-19.48-18.36-17.61Z" style="fill: rgb(92, 92, 92); stroke: rgb(38, 50, 56); stroke-miterlimit: 10; transform-origin: 547.427px 345.409px;" id="eltalmxk9a7r" class="animable"></path><path d="M585.41,334.45l-2.68-12.52c-18.91,3.25-78.94,13.62-84.61,15.51-6.74,2.25-10.86,6.74-10.12,13.86,.14,1.33,.33,2.75,.6,4.18,14.19-2.55,44.13-7.99,65.71-12.42,29.22-5.99,31.1-8.62,31.1-8.62Z" style="fill: rgb(38, 50, 56); stroke: rgb(38, 50, 56); stroke-miterlimit: 10; transform-origin: 536.662px 338.705px;" id="el0al0rx5sbscu" class="animable"></path></g><g id="eliufrk2xpln" class="animable" style="transform-origin: 552.261px 399.678px;"><path d="M621,371.16l-137.5,30.72s.75,19.11,3,22.48,7.49,4.12,12.36,3.75c4.87-.37,108.65-26.23,115.77-32.22,7.12-5.99,6.37-24.73,6.37-24.73Z" style="fill: rgb(92, 92, 92); stroke: rgb(38, 50, 56); stroke-miterlimit: 10; transform-origin: 552.261px 399.678px;" id="elqd77blo5c9l" class="animable"></path><path d="M486.5,424.37c.24,.36,.53,.67,.83,.97,3.17,.26,5.92-.6,5.92-.6l101.91-26.6s9.37-1.5,12.74-8.24c2.19-4.38,1.85-11.58,1.34-16.1l-125.73,28.09s.75,19.11,3,22.48Z" style="fill: rgb(38, 50, 56); stroke: rgb(38, 50, 56); stroke-miterlimit: 10; transform-origin: 546.565px 399.594px;" id="ele6zesew2tic" class="animable"></path></g><path d="M497.74,437.79c55.52-11.45,118.98-27.78,124.75-32.16l9.37-7.12" style="fill: none; stroke: rgb(38, 50, 56); stroke-miterlimit: 10; transform-origin: 564.8px 418.15px;" id="elmumay0e37zc" class="animable"></path><path d="M345.14,435.01c19.09,5.13,51.95,13.2,73.92,14.46,11.44,.66,38.74-3.67,69.77-9.87" style="fill: none; stroke: rgb(38, 50, 56); stroke-miterlimit: 10; transform-origin: 416.985px 442.273px;" id="eljas5n7xzsng" class="animable"></path><path d="M329.89,430.73s2.35,.7,6.37,1.83" style="fill: none; stroke: rgb(38, 50, 56); stroke-miterlimit: 10; transform-origin: 333.075px 431.645px;" id="elunbn5ctcft" class="animable"></path><path d="M260.21,266.64s90.29,29.6,108.27,38.96c17.98,9.37,23.23,14.24,23.23,14.24" style="fill: none; stroke: rgb(38, 50, 56); stroke-miterlimit: 10; transform-origin: 325.96px 293.24px;" id="elq9qczihu8wn" class="animable"></path><path d="M234.38,327.93c.3,14.1-.02,27.5-.02,27.5" style="fill: none; stroke: rgb(38, 50, 56); stroke-miterlimit: 10; transform-origin: 234.434px 341.68px;" id="else835c5amu" class="animable"></path><path d="M237.73,271.88s-6.37,17.61-4.5,34.84c.5,4.6,.81,10.2,1,15.96" style="fill: none; stroke: rgb(38, 50, 56); stroke-miterlimit: 10; transform-origin: 235.308px 297.28px;" id="elv48jma9b8ml" class="animable"></path><path d="M142.29,319.36c.16,4.89,.28,7.97,.28,7.97" style="fill: none; stroke: rgb(38, 50, 56); stroke-miterlimit: 10; transform-origin: 142.43px 323.345px;" id="elcs22qnoz554" class="animable"></path><path d="M147.06,245.66s-5.25,2.62-5.99,10.86c-.52,5.67,.39,37.07,1,56.1" style="fill: none; stroke: rgb(38, 50, 56); stroke-miterlimit: 10; transform-origin: 143.988px 279.14px;" id="ely2un0js38vq" class="animable"></path><g id="el6cq8n6hctcc" class="animable" style="transform-origin: 277.74px 392.66px;"><g id="ellq9zqcpavn"><ellipse cx="277.74" cy="392.66" rx="35.89" ry="65.59" style="fill: rgb(38, 50, 56); stroke: rgb(38, 50, 56); stroke-miterlimit: 10; transform-origin: 277.74px 392.66px; transform: rotate(-7.87deg);" class="animable"></ellipse></g><g id="el1i5faujllpq"><ellipse cx="275.04" cy="393.04" rx="26.75" ry="53.86" style="fill: rgb(255, 255, 255); stroke: rgb(38, 50, 56); stroke-miterlimit: 10; transform-origin: 275.04px 393.04px; transform: rotate(-7.87deg);" class="animable"></ellipse></g><g id="el7t6gc7226cm"><ellipse cx="283.36" cy="391.16" rx="8.09" ry="14.78" style="fill: rgb(255, 255, 255); stroke: rgb(38, 50, 56); stroke-miterlimit: 10; transform-origin: 283.36px 391.16px; transform: rotate(-7.87deg);" class="animable"></ellipse></g></g><g id="elgp8gaujf8qj"><path d="M233.8,384.29s-97.55-35.58-105.96-37.87-24.86,0-24.86,0l129.68,46.29" style="fill: rgb(255, 255, 255); opacity: 0.49; transform-origin: 168.39px 369.056px;" class="animable"></path></g><line x1="232.27" y1="408.39" x2="101.82" y2="357.51" style="fill: rgb(255, 255, 255); stroke: rgb(38, 50, 56); stroke-miterlimit: 10; transform-origin: 167.045px 382.95px;" id="elupfmlr5nj79" class="animable"></line><path d="M627.49,343.36c1.4-.74,2.4-1.38,3-1.92,3.83-3.44,4.21-5.74,4.21-5.74" style="fill: none; stroke: rgb(38, 50, 56); stroke-miterlimit: 10; transform-origin: 631.095px 339.53px;" id="eljambxz6tuvo" class="animable"></path><path d="M374.05,381.61c20.55,3.11,54.91,6.53,88.5,1.91,52.79-7.27,78.04-13.01,110.55-21.8,20.59-5.57,36.58-10.84,46.51-14.82" style="fill: none; stroke: rgb(38, 50, 56); stroke-miterlimit: 10; transform-origin: 496.83px 366.337px;" id="elh4t61ixl75c" class="animable"></path><path d="M355.06,378.17s4.22,.97,11.45,2.23" style="fill: none; stroke: rgb(38, 50, 56); stroke-miterlimit: 10; transform-origin: 360.785px 379.285px;" id="ely8he5pb7ze" class="animable"></path><path d="M457.58,395l-.38,38.64s-12.62,6.12-30.99,1.53-29.84-16.83-33.66-24.48c-3.83-7.65-4.21-11.48-2.3-12.24,1.91-.76,50.88,0,67.33-3.44Z" style="fill: none; stroke: rgb(38, 50, 56); stroke-miterlimit: 10; transform-origin: 423.354px 415.939px;" id="elqttnm2erwj" class="animable"></path><path d="M631.85,387.26c-1.32,2.97-4.81,2-4.81,2l3.83-34.43s6.5-3.06,9.18-5.74" style="fill: none; stroke: rgb(38, 50, 56); stroke-miterlimit: 10; transform-origin: 633.545px 369.251px;" id="elm3ash3x7n9" class="animable"></path><g id="el0kbi4s3y3jna"><path d="M238.28,301.17s57.8,23.05,128.36,35.81c0,0-48.22-28.72-76.95-36.52-28.72-7.8-49.64-.35-51.42,.71Z" style="fill: rgb(255, 255, 255); opacity: 0.49; transform-origin: 302.455px 316.961px;" class="animable"></path></g><g id="elm0vxznd568" class="animable" style="transform-origin: 612.659px 310.17px;"><path d="M615.75,334.82c3.75,0,10.29-10.6,10.29-10.6,0,0-7.23-23.56-19.77-38.7-1.03,1.38-8.73,12.01-6.63,19.7,2.25,8.24,12.36,29.6,16.11,29.6Z" style="fill: rgb(255, 255, 255); stroke: rgb(38, 50, 56); stroke-miterlimit: 10; transform-origin: 612.659px 310.17px;" id="eluj74s3i5t8n" class="animable"></path><g id="ely9cn604xpgh" class="animable" style="transform-origin: 610.675px 306.9px;"><path d="M609.99,310.33c-2.95,0-5.55,1.52-7.05,3.83,1.86,4.35,4.17,9.12,6.39,12.99,.22,.02,.44,.03,.66,.03,4.65,0,8.42-3.77,8.42-8.42s-3.77-8.42-8.42-8.42Z" style="fill: rgb(255, 255, 255); stroke: rgb(38, 50, 56); stroke-miterlimit: 10; transform-origin: 610.675px 318.755px;" id="eljriv6ngnhd" class="animable"></path><path d="M605.99,290.14c0,3.28,2.66,5.94,5.94,5.94,.52,0,1.03-.07,1.51-.2-1.9-3.21-4.01-6.37-6.29-9.26-.73,.99-1.16,2.2-1.16,3.52Z" style="fill: rgb(255, 255, 255); stroke: rgb(38, 50, 56); stroke-miterlimit: 10; transform-origin: 609.715px 291.35px;" id="elxvh8uy2m8pe" class="animable"></path></g></g><g id="el40s1wj6kfj2" class="animable" style="transform-origin: 416.865px 345.596px;"><path d="M386.09,322.08s-13.49-.75-14.99,5.99c-1.5,6.74,7.12,37.84,11.24,38.59,4.12,.75,58.07,.75,58.07,.75,0,0,9.74,4.12,16.11-.37,6.37-4.5,8.99-19.48,2.62-26.23s-11.99-8.62-28.85-11.99c-16.86-3.37-44.21-6.74-44.21-6.74Z" style="fill: rgb(255, 255, 255); stroke: rgb(38, 50, 56); stroke-miterlimit: 10; transform-origin: 416.865px 345.596px;" id="eldx7lcgtte1d" class="animable"></path><circle cx="448" cy="351.15" r="8.42" style="fill: rgb(255, 255, 255); stroke: rgb(38, 50, 56); stroke-miterlimit: 10; transform-origin: 448px 351.15px;" id="elrdtfjmnzqr" class="animable"></circle><circle cx="394.33" cy="356.87" r="5.94" style="fill: rgb(255, 255, 255); stroke: rgb(38, 50, 56); stroke-miterlimit: 10; transform-origin: 394.33px 356.87px;" id="elj7j9o2szngi" class="animable"></circle><circle cx="383.2" cy="335.6" r="5.94" style="fill: rgb(255, 255, 255); stroke: rgb(38, 50, 56); stroke-miterlimit: 10; transform-origin: 383.2px 335.6px;" id="el6cvb0xdrjje" class="animable"></circle></g><path d="M132.94,163.72l-53.91,48.94s-23.64-2.07-27.37,7.88-16.59,87.09-13.27,94.97c3.32,7.88,8.71,14.52,8.71,14.52,0,0,0-42.72,2.9-47.69,2.9-4.98,7.88-13.27,19.08-5.39,11.2,7.88,18.66,29.03,24.88,50.18,6.22,21.15,4.56,35.67,4.56,35.67l137.69,57.65s-.41-58.48,2.07-69.26c2.49-10.78,12.44-27.79,31.52-26.54,19.08,1.24,41.89,24.05,48.11,51.43,6.22,27.37,8.71,54.33,8.71,54.33v26.13s60.13,16.59,119.02,9.12c58.89-7.46,178.33-37.32,190.77-48.52,12.44-11.2-4.56-29.86-4.56-29.86,0,0,11.2-36.91,8.71-46.03-2.49-9.12-14.52-17-14.52-17,0,0-9.54-31.1-25.71-44.79-16.17-13.69-123.59-45.62-123.59-45.62,0,0-91.24-71.33-104.09-77.14-12.86-5.81-57.65-10.37-61.38-10.37s-54.33-.83-75.89,.83c-46.79,3.6-90.41,3.73-102.44,16.59Z" style="fill: none; stroke: rgb(38, 50, 56); stroke-miterlimit: 10; transform-origin: 339.405px 306.858px;" id="elxqogl7z3g8" class="animable"></path></g></g><defs>     <filter id="active" height="200%">         <feMorphology in="SourceAlpha" result="DILATED" operator="dilate" radius="2"></feMorphology>                <feFlood flood-color="#32DFEC" flood-opacity="1" result="PINK"></feFlood>        <feComposite in="PINK" in2="DILATED" operator="in" result="OUTLINE"></feComposite>        <feMerge>            <feMergeNode in="OUTLINE"></feMergeNode>            <feMergeNode in="SourceGraphic"></feMergeNode>        </feMerge>    </filter>    <filter id="hover" height="200%">        <feMorphology in="SourceAlpha" result="DILATED" operator="dilate" radius="2"></feMorphology>                <feFlood flood-color="#ff0000" flood-opacity="0.5" result="PINK"></feFlood>        <feComposite in="PINK" in2="DILATED" operator="in" result="OUTLINE"></feComposite>        <feMerge>            <feMergeNode in="OUTLINE"></feMergeNode>            <feMergeNode in="SourceGraphic"></feMergeNode>        </feMerge>            <feColorMatrix type="matrix" values="0   0   0   0   0                0   1   0   0   0                0   0   0   0   0                0   0   0   1   0 "></feColorMatrix>    </filter></defs></svg>